<svg id="Capa_1" data-name="Capa 1" xmlns="http://www.w3.org/2000/svg" viewBox="0 0 1413.055 1183.705"><defs><style>.cls-1{fill-rule:evenodd;}</style></defs><path class="cls-1" d="M500.64,770.35l158-6.36-5.8,52.36-158,6.37,5.79-52.37Zm-22.8-649.89,675.73-28.79-19,172L458.8,292.5l19-172Zm765.61-31.2L1497.37,79l-19,172L1224.4,261.3l19-172Zm30.26,25.35,18.74-.75c.44.06.62.28.58.64l-9.58,93.38,17.44-.7,3-29.57q.74-7.06,10.59-9.11l9.71-.39c.41.07.62.26.58.63L1321.18,204q-1.77,17.19-15.63,22.39a26.77,26.77,0,0,1-4.41.83L1262,228.78c-.43,0-.63-.2-.59-.63L1273,115.3q.19-.67.72-.69Zm73.9-3,35.46-1.41q11-.43,9.86,10.67l-8.51,82.94q-1.47,14.28-15.69,20a16.71,16.71,0,0,1-4.11.81l-24,1q-9.87.39-13.78-11.82a17.18,17.18,0,0,1-.22-4.7l9-87.93q.6-5.81,8.27-9a26.16,26.16,0,0,1,3.73-.52Zm7,19.79-6.73,65.48c-.38,3.77-2,6.52-4.86,8.21l0,.37,25.1-1q-3.29-3.74-3-6.91l6.86-66.84-17.38.69Zm46.09-21.91,56.24-2.24c.42.06.62.28.58.65l-3.8,37a.66.66,0,0,1-.72.67l-10.72.43c-4.67.19-7.24-2.94-7.67-9.38l.86-8.42-18.09.72-2.52,24.56q26.64,7.6,36.83,11.2l-4.79,46.65q-.84,8.21-9.42,10.43l-48.5,1.94c-.43,0-.63-.2-.58-.63l3.79-36.93c.13-.47.38-.72.72-.74l6.73-.27q9.59-.37,11.12,5.27a6.21,6.21,0,0,1,.62,3.3l-.94,9.1,17.45-.7,2.38-23.19q-36.27-10.51-36.18-11.28l5.9-57.41c.12-.45.37-.68.71-.7ZM516.21,146.09,561,144.3q12.4-.5,11.12,11.94l-9.21,89.67c-.63,6.18-3.27,10.16-7.86,12l-2.07.45-10.71.42c-.44,0-.64-.19-.6-.62l5.24-51q-.52.13-19.55,18.45l-3.42,33.28a.66.66,0,0,1-.72.67l-11.06.45c-5.4-1.21-7.9-3.89-7.47-8l10.79-105.14a.75.75,0,0,1,.73-.7ZM535,165.46,531.73,197q.53-.11,19.55-18.45l1.42-13.78-17.73.7Zm45.08-21.92,56.18-2.24c.41.06.61.28.58.64l-3.8,37a.67.67,0,0,1-.72.68l-9.7.39c-4.55.18-7.45-2.16-8.65-7a33.57,33.57,0,0,1,.1-3.7l.72-7-17.38.69-7.59,73.9,17.38-.69L608.94,219l-2.38.09c-5.7-.85-8.21-4.32-7.59-10.4l.9-8.72a.79.79,0,0,1,.77-.69l29.76-1.18c.41.06.62.26.58.62l-5.76,56.1a.68.68,0,0,1-.72.68l-48.19,1.92q-7.74.32-7.48-11.42l10.44-101.73a.83.83,0,0,1,.78-.7ZM643.48,141l45.16-1.81c8.25-.33,11.94,3.67,11.09,12L696.67,181,680.75,196.4l4.34-.17q10.06-.4,8.75,12.32l-3.31,32.26c-.64,6.18-3.25,10.16-7.87,12l-2,.45-10.72.43c-.42,0-.62-.2-.58-.63L673,216.75l-14.7.59c-.3,0-1.42,1-3.33,3.12l-3.42,33.28a.68.68,0,0,1-.72.68l-11.06.44c-5.16.2-7.67-3.59-7.49-11.42L642.76,141.7c.12-.45.37-.68.72-.69Zm17.69,19.35L657.92,192q.54-.18,19.56-18.51l1.42-13.78-17.73.7Zm46.4-21.55,10.73-.43c4.28-.17,6.74,2.64,7.42,8.4l-8,78.2q-.35,3.21-4.73,7.2l25.77-1,0-.29a7.3,7.3,0,0,1-3.58-7.25L743,147.39c.55-5.41,3.68-8.88,9.35-10.37l11.07-.44c.44.06.62.28.59.63l-9.59,93.31q-1.4,13.64-15.35,19.72a20,20,0,0,1-4.76.84l-23.4.94q-10.17.4-14.08-12.17a17,17,0,0,1,0-3l10-97.39c.12-.43.37-.67.71-.68Zm63.22-2.89,45.1-1.8c6.2-.25,9.86,1.86,11,6.28l.16,2L823.6,176.3l-41.69,39.46-3.38,32.91a.71.71,0,0,1-.78.68l-10.7.43q-7.74.3-7.49-11.42L770,136.62a.83.83,0,0,1,.78-.7Zm17.32,19.37-3.27,31.9q.55-.15,19.5-18.51l1.44-14.09-17.67.7Zm46.47-21.92,44.8-1.79c8.26-.33,12,3.67,11.11,11.95l-9.21,89.66c-.63,6.18-3.27,10.16-7.86,12l-2.07.45-10.7.43c-.45,0-.65-.2-.61-.63l5.24-51q-.53.15-19.55,18.45l-3.42,33.28a.66.66,0,0,1-.71.68l-11.07.44q-8.1-1.81-7.47-8l10.8-105.14a.74.74,0,0,1,.72-.7Zm18.76,19.38-3.24,31.52q.52-.11,19.55-18.44L871.07,152l-17.73.71Zm45-21.93,56.17-2.24c.42.07.62.28.58.65l-5.8,56.44a.67.67,0,0,1-.71.68l-9.35.37q-9.91-.78-9-9.69l2.82-27.53-17.38.7-7.59,73.9,17.39-.7L927,208.29q2.22-10.17,11.09-10.51l9.34-.38a.6.6,0,0,1,.58.71l-4.52,44a.68.68,0,0,1-.72.68l-48.13,1.92c-5.69-.65-8.21-4.32-7.51-11.07l10.48-102.09a.74.74,0,0,1,.72-.7Zm63.42-2.53,19.11-.76c.42.06.61.28.58.65L971.14,228.89q-1.08,10.53-8.68,13.08l-12.4.5c-.42,0-.62-.2-.58-.63L961.07,129c.13-.45.37-.68.72-.7Zm36.78-1.47,35.46-1.41c7.33-.3,10.62,3.27,9.86,10.67L1035.37,219q-1.45,14.3-15.68,20a16.71,16.71,0,0,1-4.11.81l-24.05,1q-9.85.39-13.77-11.82a17.2,17.2,0,0,1-.23-4.7l9-87.93q.6-5.81,8.27-9a26.26,26.26,0,0,1,3.74-.52Zm7,19.79-6.73,65.48c-.39,3.77-2,6.52-4.87,8.21l0,.37,25.11-1c-2.2-2.49-3.17-4.79-3-6.91l6.87-66.85-17.38.7Zm46.09-21.91,18.1-.72c2.13-.08,5.81,3.12,11,9.64l5.74,5.76,1.59-15.46c.13-.45.37-.69.72-.7l18.74-.75c.44.07.62.28.58.65l-10.76,104.77c-1.94,5.87-5.14,8.9-9.56,9.08l-10.73.42c-.42,0-.63-.19-.58-.62l7.06-68.82q-.42-.93-15.31-16.47l-8.83,86a.67.67,0,0,1-.72.68l-10.7.43q-7.74.3-7.48-11.42l10.44-101.74c.13-.45.38-.68.72-.7Zm-592,216.24,57.26-2.29c1.34.19,1.89.85,1.78,2L489.36,625.87l53.29-2.13,9.27-90.33q2.22-21.58,32.33-27.84l29.66-1.18c1.28.19,1.89.79,1.78,1.91L604.63,614q-5.39,52.51-47.74,68.42c-6.34,1.55-10.81,2.41-13.48,2.52L423.8,689.72c-1.3,0-1.92-.61-1.78-1.92l35.4-344.73c.38-1.38,1.14-2.09,2.19-2.13Zm193.94-7.75,58.37-2.33c1.28.2,1.89.85,1.78,2L682.1,640.5q-3.3,32.14-26.53,40L617.73,682c-1.3,0-1.92-.6-1.78-1.91l35.4-344.74c.39-1.38,1.14-2.09,2.2-2.13ZM734.07,330l55.27-2.2c6.52-.26,17.75,9.52,33.56,29.43l17.53,17.6,4.85-47.22c.39-1.38,1.14-2.09,2.19-2.14l57.27-2.28c1.33.19,1.89.85,1.77,2L873.64,645.2c-5.91,17.92-15.7,27.18-29.22,27.72l-32.76,1.31c-1.3,0-1.91-.61-1.78-1.92l21.59-210.24q-1.29-2.83-46.8-50.3l-27,262.63a2.07,2.07,0,0,1-2.19,2.07l-32.7,1.3q-23.64.94-22.86-34.88l31.91-310.78c.39-1.38,1.14-2.09,2.2-2.14Zm192.81-7.7,171.6-6.85c1.28.2,1.89.85,1.77,2l-17.7,172.43a2.07,2.07,0,0,1-2.19,2.08L1051.82,493q-30.33-2.43-27.54-29.61l8.63-84.1-53.1,2.12L956.63,607.2l53.1-2.12,4.74-46.16q6.81-31.06,33.89-32.12l28.53-1.14a1.81,1.81,0,0,1,1.76,2.16l-13.79,134.31a2.09,2.09,0,0,1-2.19,2.07l-147,5.87c-17.41-2-25.09-13.2-23-33.82l32-311.84a2.26,2.26,0,0,1,2.19-2.14Zm193.93-7.74,171.6-6.86c1.28.2,1.89.86,1.78,2l-11.6,112.94a2.05,2.05,0,0,1-2.19,2.07L1247.65,426q-26-3.8-23.12-31.77l2.32-22.61-53.11,2.12-8.43,82.1,75.63-3c1.27.2,1.88.85,1.78,1.91l-3,28.84q-2.58,25.23-29.63,31.71l-51.12,2-8.44,82.17,53.11-2.12,2.21-21.56q3.48-33.91,43.25-35.53l19.48-.78a1.78,1.78,0,0,1,1.76,2.1l-11.58,112.81a2.09,2.09,0,0,1-2.19,2.07l-147,5.88q-23.82.95-23-34.88l31.91-310.78a2.52,2.52,0,0,1,2.38-2.14Zm193.75-7.74,171.78-6.86c1.28.19,1.89.85,1.78,2l-11.6,112.94a2.05,2.05,0,0,1-2.19,2.07l-32.76,1.31c-14.26.57-22.12-9-23.44-28.65l2.65-25.73-55.28,2.21-7.7,75q81.39,23.26,112.52,34.22l-14.64,142.52q-2.57,25.05-28.78,31.86l-148.15,5.92c-1.31,0-1.92-.61-1.78-1.91l11.58-112.82c.4-1.44,1.16-2.22,2.21-2.26l20.54-.82q29.31-1.17,34,16.08a19.07,19.07,0,0,1,1.87,10.1l-2.85,27.78,53.29-2.13,7.27-70.83q-110.79-32.14-110.51-34.48l18-175.36c.39-1.38,1.15-2.09,2.2-2.13ZM629.92,916.62l33.61-1.35c4.62-.18,7.35,1.39,8.22,4.68l.12,1.47-2.6,25.28L638.2,976.11l-2.51,24.52a.53.53,0,0,1-.58.51l-8,.32c-3.84.15-5.71-2.68-5.58-8.51l7.79-75.81a.6.6,0,0,1,.58-.52Zm12.91,14.43-2.44,23.77q.42-.11,14.53-13.79l1.08-10.5-13.17.52Zm42.39-16.64,26.42-1.06c5.46-.22,7.92,2.44,7.35,8l-6.34,61.8Q711.56,993.75,701,998a12.37,12.37,0,0,1-3.07.6l-17.91.72q-7.37.3-10.27-8.81a12.7,12.7,0,0,1-.16-3.5l6.73-65.53c.29-2.88,2.34-5.11,6.16-6.72a18,18,0,0,1,2.78-.38Zm5.19,14.74-5,48.8a7.54,7.54,0,0,1-3.63,6.12l0,.27,18.71-.75q-2.44-2.77-2.2-5.14l5.12-49.82-13,.52Zm34.35-16.32,33.66-1.35q9.21-.36,8.26,8.9l-2.28,22.27-11.86,11.46,3.24-.13q7.49-.3,6.51,9.18l-2.47,24c-.47,4.61-2.42,7.57-5.86,8.92l-1.52.34-8,.31c-.32,0-.47-.14-.44-.46l2.78-27-11,.44c-.23,0-1.06.79-2.48,2.33l-2.55,24.8a.51.51,0,0,1-.53.5l-8.25.33q-5.78.23-5.58-8.51l7.79-75.81c.09-.34.27-.51.53-.52ZM738,927.25l-2.42,23.54q.39-.12,14.57-13.79l1.06-10.28-13.21.53Zm52.6-17,13.48-.54q2.43-.09,7.51,6.45l5.63,5.75c9.34-8.84,14.24-13.29,14.75-13.31l14.23-.57c.32,0,.46.21.43.48l-8,77.59q-.52,5.09-6.22,7.21l-9,.36c-.31,0-.46-.15-.43-.47l6.53-63.58q-.36,0-6.32,6l-3,29.51a.53.53,0,0,1-.58.52l-13.92.56c-.35,0-.52-.15-.48-.48l3-29.51q0-.36-5.38-5.76l-6.55,63.79a.49.49,0,0,1-.53.5l-8,.32q-5.1.21-5.75-6.73l8-77.59c.1-.34.28-.51.54-.52Zm61-2.44,33.39-1.33c6.16-.25,8.91,2.73,8.28,8.9l-6.86,66.82q-.72,6.9-5.86,8.92l-1.54.33-8,.32c-.33,0-.48-.15-.45-.47l3.9-38q-.39.1-14.57,13.75l-2.54,24.8a.51.51,0,0,1-.54.51l-8.25.33q-6-1.35-5.56-6l8-78.35c.07-.33.25-.51.54-.52Zm14,14.44-2.41,23.5q.39-.09,14.57-13.75l1-10.28-13.21.53Zm33.56-16.34,41.9-1.67c.31,0,.47.21.43.48l-2.82,27.55a.51.51,0,0,1-.54.51l-8,.32c-3.48.14-5.4-2.19-5.72-7l.65-6.28-13.49.54-1.88,18.3q19.86,5.67,27.45,8.34l-3.57,34.77c-.42,4.07-2.76,6.67-7,7.77L890.35,991c-.32,0-.47-.15-.43-.47L892.74,963c.1-.35.29-.54.54-.55l5-.2c4.77-.19,7.52,1.12,8.29,3.92a4.61,4.61,0,0,1,.46,2.46l-.7,6.78,13-.52,1.78-17.28q-27-7.83-27-8.41l4.39-42.77c.1-.34.28-.52.54-.53Zm73.78-2.94,5.49-.22c.32,0,.46.21.43.48L976.24,928q.06.4,11.86,12.73l3.9-38.05c.1-.33.28-.51.55-.52l5.5-.22c4.31-.17,7,1.22,8,4.16a14,14,0,0,1,.23,2.52l-8,77.56a.52.52,0,0,1-.55.51l-42.12,1.68c-.32,0-.46-.15-.43-.47l2.18-21.29c.3-2.87,2.35-5.12,6.16-6.71a20.5,20.5,0,0,1,2.74-.38l5.5-.22c.32.05.47.23.44.51l-1.34,13,14-.55,1-10-25.21-27.41,2.54-24.76c1.41-4.37,3.8-6.63,7.14-6.76,0-.18.88-.31,2.52-.37Zm57.05-2.28,13.48-.54q2.43-.09,7.51,6.45l5.63,5.75c9.34-8.84,14.24-13.29,14.76-13.31l14.22-.57c.33.05.46.21.43.48l-8,77.59q-.51,5.09-6.21,7.21l-9,.36c-.31,0-.46-.15-.43-.47l6.53-63.58q-.36,0-6.32,6l-3,29.51a.53.53,0,0,1-.58.52l-13.92.56q-.52,0-.48-.48l3-29.51c0-.25-1.77-2.16-5.37-5.77l-6.56,63.8a.49.49,0,0,1-.53.5l-8,.32q-5.1.21-5.75-6.73l8-77.59c.1-.34.28-.51.54-.52Zm61-2.44,41.86-1.67c.31.05.46.21.43.48l-2.83,27.55a.5.5,0,0,1-.53.51l-8,.32q-6.35-.93-5.63-7.75l.56-5.52-12.95.52-2.06,20,18.45-.74c.31.05.46.21.44.47l-.73,7q-.63,6.15-7.23,7.74l-12.47.49-2.06,20.05,13-.52.54-5.26c.56-5.51,4.09-8.41,10.55-8.67l4.75-.19a.44.44,0,0,1,.43.52l-2.83,27.52a.5.5,0,0,1-.53.5L1088.22,983q-5.81.24-5.62-8.5l7.78-75.82a.63.63,0,0,1,.59-.52Zm61.5-2.46,27.39-1.09c.33.05.46.21.44.48l-8,78.35c-1.48,4.19-3.77,6.36-6.85,6.48l-35.91,1.44c-.32,0-.46-.15-.43-.47l4.26-41.55c.1-.32.28-.49.54-.5l7.76-.31c4.22.78,6.16,2.85,5.81,6.24.13,0,.13.86,0,2.49l-1.9,18.52,12.72-.51,5.66-55.07-7,.28c-4.2-.94-6.15-3-5.81-6.25l.82-8a.56.56,0,0,1,.55-.53Zm40.56-1.62,26.42-1c5.47-.22,7.92,2.44,7.35,7.95l-6.34,61.81q-1.1,10.63-11.69,14.91a11.93,11.93,0,0,1-3.06.61l-17.92.72q-7.36.28-10.26-8.81a12,12,0,0,1-.17-3.5l6.72-65.53c.3-2.89,2.35-5.12,6.17-6.72a19.66,19.66,0,0,1,2.78-.39Zm5.19,14.75-5,48.79a7.55,7.55,0,0,1-3.63,6.13l0,.27,18.7-.75q-2.44-2.77-2.2-5.15l5.12-49.81-13,.52Zm34.35-16.33,33.66-1.34q9.21-.36,8.27,8.9l-2.29,22.26-11.86,11.46,3.23-.12q7.5-.3,6.52,9.18l-2.47,24q-.7,6.9-5.85,8.92l-1.53.33-8,.32c-.32,0-.47-.15-.44-.46l2.78-27-11,.44a10.67,10.67,0,0,0-2.48,2.32l-2.55,24.8a.51.51,0,0,1-.53.51l-8.25.33c-3.84.15-5.71-2.68-5.58-8.51l7.79-75.81c.09-.34.28-.52.53-.53ZM1245.76,907l-2.42,23.54q.4-.13,14.57-13.79l1.06-10.28-13.21.53ZM701.66,708.36l519.14-20.9-19,172L682.62,880.4l19-172Zm43.27,28.21,56.23-2.25c.42.07.62.28.58.65l-3.79,37a.68.68,0,0,1-.72.68l-10.72.43c-4.67.18-7.24-2.94-7.68-9.38l.87-8.43-18.1.73-2.52,24.55q26.65,7.62,36.84,11.2l-4.79,46.66q-.86,8.19-9.43,10.43l-48.49,1.93c-.43,0-.63-.2-.59-.62l3.8-36.93c.12-.48.38-.73.72-.74l6.72-.27c6.4-.26,10.1,1.5,11.13,5.26a6.25,6.25,0,0,1,.61,3.31l-.93,9.09,17.44-.7L774.49,806q-36.27-10.53-36.18-11.29l5.9-57.4c.13-.45.37-.69.72-.7ZM808.41,734l44.8-1.79c8.27-.33,12,3.67,11.11,12l-9.2,89.66q-1,9.27-7.87,12l-2.07.45-10.7.43c-.44,0-.65-.2-.6-.63l5.24-51q-.54.15-19.56,18.45l-3.41,33.28a.67.67,0,0,1-.72.68l-11.06.44c-5.4-1.21-7.9-3.89-7.47-8l10.79-105.14a.75.75,0,0,1,.72-.7Zm18.76,19.38-3.23,31.52q.52-.1,19.55-18.44l1.41-13.79-17.73.71Zm45-21.92,18.1-.73c2.13-.08,5.8,3.12,11,9.64l5.74,5.76,1.58-15.46c.13-.45.38-.68.72-.7l18.75-.75c.44.07.62.28.58.65L917.89,834.67c-1.93,5.87-5.14,8.9-9.57,9.08l-10.72.43c-.43,0-.63-.2-.58-.63l7.06-68.82q-.42-.93-15.31-16.47l-8.83,86a.68.68,0,0,1-.72.68l-10.7.43q-7.74.3-7.48-11.42l10.44-101.74c.13-.45.38-.68.72-.69ZM959.47,728l18.74-.75c.44.06.62.28.58.65l-9.59,93.37,17.45-.69,3-29.57q.74-7.07,10.58-9.12l9.71-.38c.42.06.63.25.58.62l-3.61,35.26q-1.77,17.19-15.63,22.39a26.84,26.84,0,0,1-4.42.83l-39.15,1.56c-.43,0-.63-.19-.58-.62L958.74,728.7c.13-.45.38-.69.73-.7Zm63.44-2.17,10.72-.43c4.29-.17,6.75,2.64,7.43,8.4l-8,78.2c-.22,2.14-1.8,4.54-4.72,7.2l25.77-1,0-.29a7.3,7.3,0,0,1-3.58-7.25l7.82-76.22c.56-5.41,3.69-8.88,9.36-10.37l11.07-.44c.44.06.62.28.58.63l-9.58,93.31q-1.41,13.63-15.35,19.72a20,20,0,0,1-4.76.84l-23.4.94q-10.17.4-14.08-12.17a18.24,18.24,0,0,1,0-3l10-97.39c.13-.43.37-.67.72-.68Zm63.15-2.89,19.11-.76c.42.06.63.28.59.65l-10.35,100.71q-1.08,10.53-8.68,13.08l-12.39.5c-.42,0-.62-.2-.58-.63l11.59-112.85c.12-.45.37-.68.71-.7Zm26.37-1.05,56.23-2.25c.42.07.62.28.58.65l-3.8,37a.67.67,0,0,1-.71.68l-10.73.43c-4.67.19-7.24-2.94-7.67-9.38l.87-8.42-18.1.72-2.52,24.55q26.64,7.62,36.83,11.2l-4.79,46.66q-.84,8.19-9.42,10.43l-48.5,1.93c-.42,0-.62-.19-.58-.62l3.79-36.93c.13-.47.38-.73.72-.74l6.73-.27c6.39-.26,10.1,1.51,11.13,5.26a6.25,6.25,0,0,1,.61,3.31l-.94,9.09,17.45-.69,2.38-23.19q-36.27-10.53-36.18-11.29l5.9-57.4c.12-.45.37-.69.72-.7Zm130.72,22.69,158-6.36-5.8,52.36-158,6.36,5.79-52.36Z" transform="translate(-422 -79)"/></svg>